<svg width="595.28" height="421.89" xmlns="http://www.w3.org/2000/svg">

 <g>
  <title>background</title>
  <rect fill="none" id="canvas_background" height="423.89" width="597.28" y="-1" x="-1"/>
 </g>
 <g>
  <title>Layer 1</title>
  <text id="svg_1" font-size="72" font-family="'BigJohn'" transform="matrix(1,0,0,1,-602.8955,355.9917) ">bairesWEB</text>
  <path id="svg_2" d="m-494.003,486.129c1.823,1.057 3.24,2.33 4.248,3.816c1.008,1.488 1.739,2.916 2.196,4.285c0.455,1.367 0.73,2.555 0.827,3.563c0.096,1.008 0.145,1.561 0.145,1.656c0,2.545 -0.372,4.67 -1.116,6.373c-0.745,1.703 -1.728,3.107 -2.952,4.211c-1.224,1.105 -2.628,1.957 -4.212,2.557s-3.216,1.033 -4.896,1.295c-1.681,0.266 -3.36,0.408 -5.04,0.434c-1.681,0.023 -3.217,0.035 -4.608,0.035l-18.289,0l0,-52.775l18.288,0c1.775,0 3.708,0.299 5.796,0.898c2.088,0.602 4.02,1.584 5.796,2.953c1.775,1.367 3.264,3.145 4.464,5.328c1.199,2.184 1.801,4.836 1.801,7.955c0,0.961 -0.062,1.764 -0.181,2.412c-0.12,0.648 -0.288,1.25 -0.504,1.801c-0.216,0.553 -0.468,1.068 -0.756,1.547c-0.288,0.48 -0.624,1.033 -1.007,1.656zm-22.393,-3.383l6.984,0c0.576,0 1.248,0.012 2.016,0.035c0.768,0.025 1.477,-0.047 2.124,-0.215c0.648,-0.168 1.199,-0.541 1.656,-1.117c0.456,-0.576 0.685,-1.486 0.685,-2.736c0,-1.342 -0.265,-2.398 -0.792,-3.168c-0.529,-0.768 -1.152,-1.342 -1.872,-1.727c-0.721,-0.385 -1.44,-0.625 -2.16,-0.721s-1.272,-0.145 -1.656,-0.145l-6.984,0l0,9.794l-0.001,0zm7.921,20.303c3.263,0 5.627,-0.299 7.092,-0.898c1.463,-0.6 2.195,-1.766 2.195,-3.492c0,-1.68 -0.732,-2.809 -2.195,-3.385c-1.465,-0.576 -3.829,-0.863 -7.092,-0.863l-7.921,0l0,8.639l7.921,0l0,-0.001z" fill="#B2D235"/>
  <path id="svg_3" d="m-462.684,514.354l-2.736,-7.775l-21.313,0l-2.735,7.775l-11.952,0l18.864,-52.848l12.96,0l18.863,52.848l-11.951,0zm-20.16,-18.649l13.536,0l-6.769,-18.936l-6.767,18.936z" fill="#B2D235"/>
  <path id="svg_4" d="m-445.261,461.578l0,52.775l-10.944,0l0,-52.775l10.944,0z" fill="#B2D235"/>
  <path id="svg_5" d="m-401.409,495.561c1.392,1.25 2.592,2.654 3.6,4.213c1.009,1.561 1.836,3.168 2.484,4.824c0.647,1.656 1.116,3.324 1.404,5.004c0.288,1.682 0.432,3.266 0.432,4.752l-5.4,0l-5.472,0c0,-0.336 -0.036,-0.9 -0.108,-1.691c-0.071,-0.793 -0.228,-1.668 -0.468,-2.629c-0.24,-0.959 -0.601,-1.943 -1.08,-2.951c-0.48,-1.008 -1.141,-1.945 -1.979,-2.809c-0.841,-0.863 -1.885,-1.559 -3.132,-2.088c-1.249,-0.527 -2.761,-0.793 -4.536,-0.793l-13.032,0l0,12.961l-10.8,0l0,-52.92l23.832,0c0.191,0 0.72,0.035 1.584,0.107s1.908,0.289 3.132,0.648s2.556,0.9 3.996,1.619c1.439,0.721 2.831,1.754 4.176,3.098c3.983,3.984 5.977,9.455 5.977,16.416c0,2.734 -0.421,5.111 -1.261,7.127s-1.957,3.721 -3.349,5.112zm-14.256,-5.04c0.576,0 1.319,-0.084 2.231,-0.252c0.911,-0.168 1.801,-0.504 2.664,-1.008c0.864,-0.504 1.596,-1.225 2.196,-2.16c0.6,-0.936 0.9,-2.195 0.9,-3.779c0,-2.496 -0.324,-4.477 -0.973,-5.941c-0.647,-1.463 -1.416,-2.566 -2.304,-3.311c-0.889,-0.744 -1.789,-1.225 -2.7,-1.441c-0.912,-0.215 -1.608,-0.324 -2.088,-0.324l-12.96,0l0,18.217l13.034,0l0,-0.001z" fill="#B2D235"/>
  <path id="svg_6" d="m-392.099,472.521l0,10.729l23.76,0l0,11.016l-23.76,0l0,9.072l24.696,0l0,11.016l-35.641,0l0,-52.775l35.641,0l0,10.943l-24.696,0l0,-0.001z" fill="#B2D235"/>
  <text id="svg_7" font-size="13" font-family="'Lato-Regular'" transform="matrix(1,0,0,1,-335.9409,452.8301) ">WEB</text>
  <text id="svg_8" font-size="11" font-family="'Lato-Thin'" transform="matrix(1,0,0,1,-527.6997,529.0508) ">WEB DEVELOPMENT COMMUNITY</text>
  <g id="svg_9">
   <path id="svg_10" d="m-339.07,438.629c4.039,-7.172 12.299,-11.361 20.86,-9.836c10.831,1.93 18.049,12.273 16.119,23.105c-1.233,6.916 -5.897,12.361 -11.929,14.889" stroke-miterlimit="10" stroke-width="4.0481" stroke="#B2D235" fill="none"/>
  </g>
  <g id="svg_11">
   <path id="svg_12" d="m-332.987,486.67c-3.696,-2.953 -8.952,-4.428 -15.768,-4.428c-2.592,0 -4.44,-0.553 -5.544,-1.656c-0.385,-0.385 -0.648,-0.803 -0.792,-1.26c-0.145,-0.457 -0.265,-0.875 -0.36,-1.26c-0.097,-0.48 -0.144,-0.961 -0.144,-1.441l0.072,-0.072l0,-0.504c0,-0.334 0.095,-0.766 0.287,-1.295c0.191,-0.527 0.564,-1.031 1.116,-1.512s1.344,-0.889 2.376,-1.225s2.412,-0.504 4.141,-0.504c1.774,0 3.215,0.217 4.319,0.648c1.104,0.432 1.944,0.971 2.521,1.619s0.959,1.344 1.151,2.088c0.191,0.744 0.288,1.404 0.288,1.98l0,-0.145l10.944,0.361c0,-0.191 -0.024,-0.695 -0.072,-1.514c-0.048,-0.814 -0.216,-1.799 -0.504,-2.951c-0.236,-0.945 -0.609,-1.959 -1.104,-3.033c-1.703,-0.412 -3.353,-1.045 -4.908,-1.895l-6.935,2.691l1.146,-7.428c-0.772,-0.918 -1.449,-1.904 -2.041,-2.936c-1.502,-0.277 -3.096,-0.432 -4.805,-0.432c-6.241,0 -11.113,1.752 -14.616,5.256c-0.961,0.961 -1.717,1.955 -2.269,2.988c-0.552,1.031 -0.984,2.004 -1.296,2.916c-0.313,0.912 -0.516,1.74 -0.611,2.482c-0.097,0.746 -0.145,1.285 -0.145,1.621c0,0.385 0.012,0.996 0.036,1.836c0.023,0.84 0.155,1.824 0.396,2.951c0.239,1.129 0.647,2.33 1.224,3.6c0.576,1.273 1.392,2.484 2.448,3.637c0.527,0.625 1.199,1.248 2.016,1.873c0.815,0.623 1.775,1.188 2.88,1.691c1.104,0.504 2.388,0.924 3.853,1.26c1.463,0.336 3.106,0.504 4.932,0.504c2.399,0 4.416,0.229 6.048,0.684c1.632,0.457 2.783,1.092 3.456,1.908c0.384,0.48 0.612,1.008 0.684,1.584c0.072,0.576 0.108,1.152 0.108,1.729c-0.336,1.008 -0.816,1.813 -1.439,2.412c-0.625,0.6 -1.561,1.152 -2.809,1.656c-1.249,0.504 -2.952,0.756 -5.112,0.756c-1.344,0 -2.544,-0.18 -3.6,-0.541c-1.057,-0.359 -1.956,-0.803 -2.7,-1.332c-0.744,-0.527 -1.32,-1.08 -1.728,-1.656c-0.408,-0.576 -0.612,-1.08 -0.612,-1.512l-10.944,0c0,2.16 0.516,4.213 1.549,6.156c1.031,1.943 2.447,3.637 4.248,5.076c1.8,1.439 3.875,2.592 6.228,3.455c2.352,0.865 4.871,1.297 7.56,1.297c3.696,0 6.841,-0.529 9.433,-1.584s4.691,-2.375 6.3,-3.959c1.607,-1.584 2.783,-3.289 3.528,-5.113c0.743,-1.824 1.115,-3.502 1.115,-5.039c-0.001,-5.371 -1.849,-9.537 -5.545,-12.488z" fill="#B2D235"/>
  </g>
  <g id="svg_13">
   <path id="svg_14" d="m-186.051,416.963l-2.394,-10.29l2.156,0l1.344,5.796l1.399,-5.796l2.17,0l1.19,5.838l1.624,-5.838l2.17,0l-2.87,10.29l-2.17,0l-1.12,-5.529l-1.33,5.529l-2.169,0z"/>
   <path id="svg_15" d="m-173.662,408.785l0,2.086l4.62,0l0,2.142l-4.62,0l0,1.765l4.802,0l0,2.142l-6.93,0l0,-10.262l6.93,0l0,2.128l-4.802,0l0,-0.001z"/>
   <path id="svg_16" d="m-161.722,411.445c0.355,0.205 0.631,0.452 0.826,0.741c0.196,0.29 0.339,0.567 0.428,0.833c0.088,0.267 0.142,0.497 0.16,0.693s0.028,0.304 0.028,0.322c0,0.494 -0.072,0.907 -0.217,1.239c-0.145,0.331 -0.336,0.604 -0.574,0.818s-0.511,0.381 -0.819,0.497c-0.308,0.117 -0.625,0.201 -0.951,0.252c-0.327,0.052 -0.653,0.079 -0.98,0.084s-0.625,0.007 -0.896,0.007l-3.557,0l0,-10.261l3.557,0c0.345,0 0.721,0.059 1.127,0.175c0.405,0.117 0.781,0.309 1.127,0.574c0.345,0.266 0.634,0.611 0.867,1.036s0.351,0.94 0.351,1.547c0,0.187 -0.012,0.343 -0.035,0.469s-0.056,0.243 -0.098,0.351s-0.091,0.207 -0.147,0.301c-0.056,0.093 -0.121,0.201 -0.197,0.322zm-4.353,-0.658l1.358,0c0.111,0 0.242,0.002 0.392,0.007s0.287,-0.009 0.413,-0.042c0.126,-0.032 0.233,-0.105 0.322,-0.217c0.088,-0.112 0.133,-0.289 0.133,-0.532c0,-0.261 -0.052,-0.467 -0.154,-0.616s-0.224,-0.261 -0.364,-0.336c-0.14,-0.074 -0.279,-0.121 -0.42,-0.14c-0.14,-0.019 -0.247,-0.028 -0.321,-0.028l-1.358,0l0,1.904l-0.001,0zm1.54,3.948c0.635,0 1.094,-0.059 1.379,-0.176c0.284,-0.116 0.427,-0.343 0.427,-0.679c0,-0.326 -0.143,-0.546 -0.427,-0.658c-0.285,-0.111 -0.744,-0.168 -1.379,-0.168l-1.54,0l0,1.681l1.54,0z"/>
  </g>
  <rect id="svg_17" height="414.798" width="595.28" y="427.092"/>
  <g id="svg_18">
   <path id="svg_19" d="m134.274,614.916c4.066,2.356 7.228,5.195 9.475,8.512c2.248,3.32 3.879,6.505 4.899,9.557c1.015,3.051 1.629,5.7 1.845,7.948c0.213,2.248 0.322,3.481 0.322,3.694c0,5.676 -0.83,10.414 -2.49,14.213c-1.662,3.801 -3.854,6.934 -6.585,9.395c-2.729,2.466 -5.861,4.365 -9.395,5.703s-7.173,2.303 -10.919,2.889c-3.749,0.59 -7.496,0.91 -11.242,0.965c-3.749,0.052 -7.175,0.08 -10.279,0.08l-40.791,0l0,-117.72l40.792,0c3.96,0 8.271,0.669 12.928,2.006c4.657,1.342 8.965,3.533 12.928,6.588c3.96,3.049 7.28,7.014 9.957,11.885c2.675,4.87 4.017,10.786 4.017,17.743c0,2.144 -0.138,3.935 -0.403,5.38c-0.268,1.447 -0.643,2.787 -1.124,4.018s-1.043,2.383 -1.686,3.449c-0.644,1.072 -1.393,2.304 -2.249,3.695zm-49.947,-7.548l15.579,0c1.285,0 2.784,0.028 4.496,0.081c1.712,0.057 3.293,-0.105 4.738,-0.482c1.446,-0.374 2.675,-1.204 3.694,-2.489c1.017,-1.285 1.527,-3.317 1.527,-6.104c0,-2.995 -0.59,-5.352 -1.767,-7.065c-1.181,-1.713 -2.57,-2.996 -4.176,-3.854c-1.607,-0.856 -3.213,-1.393 -4.818,-1.605c-1.605,-0.214 -2.838,-0.322 -3.694,-0.322l-15.579,0l0,21.84zm17.668,45.288c7.277,0 12.551,-0.667 15.818,-2.006c3.263,-1.338 4.896,-3.938 4.896,-7.79c0,-3.747 -1.634,-6.263 -4.896,-7.548c-3.268,-1.285 -8.541,-1.928 -15.818,-1.928l-17.668,0l0,19.271l17.668,0l0,0.001z" fill="#B2D235"/>
   <path id="svg_20" d="m204.132,677.871l-6.104,-17.346l-47.538,0l-6.101,17.346l-26.66,0l42.077,-117.877l28.907,0l42.075,117.877l-26.656,0zm-44.967,-41.596l30.192,0l-15.097,-42.236l-15.095,42.236z" fill="#B2D235"/>
   <path id="svg_21" d="m242.994,560.152l0,117.719l-24.412,0l0,-117.719l24.412,0z" fill="#B2D235"/>
   <path id="svg_22" d="m340.809,635.953c3.104,2.788 5.779,5.918 8.027,9.396c2.25,3.481 4.096,7.066 5.543,10.761c1.443,3.694 2.488,7.415 3.131,11.161c0.643,3.749 0.963,7.282 0.963,10.6l-12.045,0l-12.205,0c0,-0.75 -0.08,-2.008 -0.242,-3.775c-0.158,-1.766 -0.506,-3.718 -1.043,-5.861c-0.535,-2.139 -1.34,-4.334 -2.408,-6.584c-1.072,-2.248 -2.545,-4.338 -4.416,-6.264c-1.875,-1.928 -4.203,-3.479 -6.986,-4.656c-2.785,-1.176 -6.156,-1.77 -10.117,-1.77l-29.068,0l0,28.91l-24.089,0l0,-118.039l53.158,0c0.428,0 1.605,0.078 3.533,0.24c1.928,0.161 4.256,0.643 6.986,1.446c2.729,0.802 5.699,2.009 8.912,3.611c3.211,1.607 6.314,3.912 9.314,6.907c8.885,8.889 13.33,21.092 13.33,36.616c0,6.101 -0.938,11.403 -2.811,15.899s-4.364,8.301 -7.467,11.402zm-31.799,-11.24c1.285,0 2.943,-0.188 4.977,-0.562s4.018,-1.124 5.943,-2.248c1.928,-1.124 3.559,-2.731 4.898,-4.817c1.338,-2.09 2.008,-4.899 2.008,-8.433c0,-5.565 -0.723,-9.983 -2.168,-13.251c-1.445,-3.262 -3.16,-5.724 -5.139,-7.386c-1.982,-1.657 -3.992,-2.729 -6.023,-3.213c-2.035,-0.481 -3.588,-0.724 -4.656,-0.724l-28.908,0l0,40.633l29.068,0l0,0.001z" fill="#B2D235"/>
   <path id="svg_23" d="m361.572,584.564l0,23.93l52.998,0l0,24.57l-52.998,0l0,20.236l55.086,0l0,24.57l-79.496,0l0,-117.716l79.496,0l0,24.41l-55.086,0z" fill="#B2D235"/>
   <g id="svg_24">
    <path id="svg_25" d="m485.037,521.865l2.334,0c0.25,0 0.459,0.063 0.623,0.188c0.164,0.127 0.275,0.286 0.334,0.479l4.291,14.441c0.078,0.261 0.146,0.541 0.211,0.84c0.063,0.301 0.123,0.615 0.18,0.943c0.068,-0.328 0.137,-0.646 0.203,-0.949c0.068,-0.305 0.146,-0.583 0.232,-0.834l4.887,-14.441c0.057,-0.164 0.172,-0.316 0.34,-0.456c0.17,-0.14 0.375,-0.21 0.617,-0.21l0.811,0c0.252,0 0.457,0.063 0.617,0.188c0.158,0.127 0.273,0.286 0.34,0.479l4.857,14.441c0.174,0.502 0.328,1.078 0.465,1.725c0.057,-0.318 0.109,-0.623 0.158,-0.913s0.111,-0.561 0.189,-0.812l4.305,-14.441c0.049,-0.174 0.158,-0.328 0.326,-0.463c0.17,-0.136 0.375,-0.203 0.617,-0.203l2.189,0l-6.48,20.775l-2.523,0l-5.264,-15.846c-0.105,-0.3 -0.203,-0.648 -0.289,-1.045c-0.049,0.193 -0.094,0.38 -0.139,0.559c-0.043,0.18 -0.088,0.341 -0.137,0.486l-5.293,15.846l-2.521,0l-6.48,-20.777z" fill="#FFFFFF"/>
    <path id="svg_26" d="m528.256,521.865l0,2.291l-9.975,0l0,6.9l8.076,0l0,2.204l-8.076,0l0,7.09l9.975,0l0,2.29l-12.803,0l0,-20.775l12.803,0z" fill="#FFFFFF"/>
    <path id="svg_27" d="m530.852,542.641l0,-20.775l6.625,0c1.275,0 2.375,0.125 3.299,0.377c0.924,0.251 1.682,0.609 2.275,1.072c0.596,0.465 1.035,1.032 1.32,1.704s0.428,1.428 0.428,2.269c0,0.513 -0.08,1.006 -0.24,1.479c-0.158,0.475 -0.4,0.914 -0.725,1.32s-0.729,0.768 -1.217,1.087s-1.061,0.58 -1.719,0.783c1.518,0.3 2.662,0.846 3.436,1.638c0.773,0.793 1.16,1.837 1.16,3.132c0,0.88 -0.162,1.683 -0.484,2.407c-0.324,0.725 -0.799,1.348 -1.422,1.87s-1.387,0.925 -2.291,1.21s-1.936,0.428 -3.096,0.428l-7.349,0l0,-0.001zm2.812,-11.468l3.711,0c0.793,0 1.479,-0.087 2.059,-0.261s1.061,-0.416 1.443,-0.725c0.381,-0.31 0.664,-0.684 0.848,-1.124s0.275,-0.921 0.275,-1.442c0,-1.219 -0.367,-2.111 -1.102,-2.683c-0.734,-0.569 -1.875,-0.855 -3.422,-0.855l-3.813,0l0,7.09l0.001,0zm0,2.001l0,7.234l4.494,0c0.803,0 1.49,-0.092 2.066,-0.275c0.574,-0.184 1.049,-0.441 1.42,-0.775c0.373,-0.334 0.646,-0.73 0.82,-1.189s0.26,-0.964 0.26,-1.515c0,-1.073 -0.379,-1.921 -1.137,-2.544c-0.76,-0.624 -1.906,-0.936 -3.443,-0.936l-4.48,0z" fill="#FFFFFF"/>
   </g>
   <g id="svg_28">
    <path id="svg_29" d="m83.146,693.403l-5.459,17.249l-0.602,0l-5.471,-15.924c-0.057,-0.164 -0.103,-0.327 -0.135,-0.491c-0.033,0.164 -0.078,0.327 -0.135,0.491l-5.496,15.924l-0.589,0l-5.459,-17.249l0.552,0c0.139,0 0.229,0.069 0.27,0.208l4.76,15.323c0.082,0.278 0.151,0.572 0.208,0.884c0.032,-0.164 0.067,-0.32 0.104,-0.467c0.037,-0.147 0.076,-0.286 0.117,-0.417l5.312,-15.323c0.041,-0.139 0.139,-0.208 0.294,-0.208l0.16,0c0.139,0 0.229,0.069 0.27,0.208l5.312,15.323c0.082,0.253 0.155,0.544 0.221,0.87c0.033,-0.162 0.065,-0.316 0.098,-0.459c0.033,-0.144 0.07,-0.28 0.111,-0.411l4.76,-15.323c0.041,-0.139 0.139,-0.208 0.294,-0.208l0.503,0z" fill="#FFFFFF"/>
    <path id="svg_30" d="m98.737,710.075l-0.024,0.577l-10.182,0l0,-17.249l10.182,0l0,0.577l-9.507,0l0,7.643l8.011,0l0,0.564l-8.011,0l0,7.888l9.531,0z" fill="#FFFFFF"/>
    <path id="svg_31" d="m109.435,693.403c1.881,0 3.28,0.376 4.196,1.128c0.916,0.754 1.374,1.82 1.374,3.203c0,0.482 -0.09,0.946 -0.27,1.393c-0.18,0.445 -0.432,0.852 -0.754,1.22c-0.323,0.368 -0.716,0.683 -1.178,0.944c-0.462,0.262 -0.976,0.446 -1.54,0.553c0.703,0.073 1.333,0.223 1.889,0.447c0.556,0.226 1.028,0.516 1.417,0.871c0.388,0.355 0.685,0.777 0.889,1.264s0.307,1.029 0.307,1.625c0,0.736 -0.126,1.389 -0.38,1.957c-0.254,0.568 -0.624,1.049 -1.11,1.441c-0.487,0.393 -1.082,0.691 -1.785,0.896c-0.704,0.204 -1.505,0.307 -2.404,0.307l-5.324,0l0,-17.249l4.673,0zm-3.999,0.54l0,7.717l4.085,0c0.867,0 1.605,-0.117 2.214,-0.35c0.609,-0.234 1.108,-0.536 1.497,-0.908c0.389,-0.373 0.67,-0.789 0.847,-1.252c0.176,-0.461 0.264,-0.918 0.264,-1.367c0,-1.235 -0.403,-2.184 -1.208,-2.847c-0.806,-0.662 -2.039,-0.993 -3.699,-0.993l-4,0zm4.649,16.157c1.611,0 2.848,-0.346 3.711,-1.037c0.863,-0.69 1.294,-1.698 1.294,-3.023c0,-0.597 -0.117,-1.133 -0.35,-1.607c-0.233,-0.474 -0.564,-0.879 -0.994,-1.214c-0.429,-0.335 -0.953,-0.593 -1.57,-0.772c-0.618,-0.181 -1.311,-0.271 -2.08,-0.271l-4.662,0l0,7.925l4.651,0l0,-0.001z" fill="#FFFFFF"/>
    <path id="svg_32" d="m145.159,702.027c0,1.35 -0.196,2.559 -0.589,3.625c-0.393,1.068 -0.945,1.972 -1.656,2.711c-0.711,0.74 -1.562,1.307 -2.552,1.699s-2.082,0.59 -3.275,0.59l-6.22,0l0,-17.249l6.22,0c1.194,0 2.286,0.196 3.275,0.589s1.84,0.959 2.552,1.699s1.264,1.644 1.656,2.711s0.589,2.276 0.589,3.625zm-0.711,0c0,-1.283 -0.178,-2.427 -0.534,-3.429c-0.356,-1.001 -0.859,-1.847 -1.509,-2.533c-0.65,-0.687 -1.427,-1.21 -2.331,-1.57c-0.904,-0.36 -1.9,-0.54 -2.987,-0.54l-5.545,0l0,16.145l5.545,0c1.087,0 2.083,-0.18 2.987,-0.539c0.903,-0.36 1.681,-0.884 2.331,-1.57c0.65,-0.688 1.153,-1.531 1.509,-2.533c0.356,-1.003 0.534,-2.146 0.534,-3.431z" fill="#FFFFFF"/>
    <path id="svg_33" d="m161.671,710.075l-0.024,0.577l-10.182,0l0,-17.249l10.182,0l0,0.577l-9.507,0l0,7.643l8.011,0l0,0.564l-8.011,0l0,7.888l9.531,0z" fill="#FFFFFF"/>
    <path id="svg_34" d="m180.331,693.403l-7.165,17.249l-0.601,0l-7.165,-17.249l0.528,0c0.139,0 0.229,0.069 0.27,0.208l6.404,15.445c0.049,0.131 0.096,0.264 0.141,0.398c0.044,0.136 0.087,0.272 0.128,0.412c0.074,-0.278 0.16,-0.549 0.258,-0.811l6.392,-15.445c0.041,-0.139 0.139,-0.208 0.294,-0.208l0.516,0l0,0.001z" fill="#FFFFFF"/>
    <path id="svg_35" d="m195.677,710.075l-0.024,0.577l-10.182,0l0,-17.249l10.182,0l0,0.577l-9.507,0l0,7.643l8.011,0l0,0.564l-8.011,0l0,7.888l9.531,0z" fill="#FFFFFF"/>
    <path id="svg_36" d="m210.926,710.063l0,0.59l-9.225,0l0,-17.249l0.675,0l0,16.659l8.55,0z" fill="#FFFFFF"/>
    <path id="svg_37" d="m230.984,702.027c0,1.35 -0.196,2.566 -0.589,3.65s-0.945,2.008 -1.656,2.771c-0.711,0.766 -1.562,1.352 -2.552,1.762c-0.99,0.408 -2.085,0.613 -3.288,0.613c-1.186,0 -2.274,-0.205 -3.263,-0.613c-0.99,-0.41 -1.84,-0.996 -2.552,-1.762c-0.711,-0.764 -1.264,-1.688 -1.656,-2.771s-0.589,-2.301 -0.589,-3.65c0,-1.341 0.196,-2.556 0.589,-3.644c0.393,-1.087 0.945,-2.014 1.656,-2.778s1.562,-1.355 2.552,-1.773c0.989,-0.416 2.077,-0.625 3.263,-0.625c1.202,0 2.298,0.207 3.288,0.619c0.99,0.414 1.84,1.002 2.552,1.768c0.711,0.764 1.264,1.69 1.656,2.777c0.393,1.088 0.589,2.307 0.589,3.656zm-0.712,0c0,-1.283 -0.178,-2.436 -0.534,-3.453c-0.356,-1.018 -0.859,-1.883 -1.509,-2.595c-0.65,-0.712 -1.427,-1.255 -2.331,-1.632c-0.904,-0.376 -1.904,-0.564 -3,-0.564c-1.08,0 -2.071,0.188 -2.975,0.564c-0.904,0.377 -1.681,0.92 -2.331,1.632c-0.65,0.712 -1.158,1.577 -1.521,2.595s-0.546,2.17 -0.546,3.453c0,1.284 0.182,2.436 0.546,3.453c0.364,1.019 0.871,1.879 1.521,2.583c0.65,0.703 1.427,1.243 2.331,1.619s1.896,0.564 2.975,0.564c1.096,0 2.096,-0.188 3,-0.564c0.903,-0.376 1.681,-0.916 2.331,-1.619c0.65,-0.704 1.153,-1.564 1.509,-2.583c0.356,-1.017 0.534,-2.168 0.534,-3.453z" fill="#FFFFFF"/>
    <path id="svg_38" d="m241.387,693.403c1.946,0 3.424,0.417 4.435,1.251s1.515,2.086 1.515,3.754c0,0.729 -0.141,1.4 -0.423,2.019s-0.685,1.149 -1.208,1.595s-1.151,0.793 -1.883,1.043s-1.544,0.374 -2.435,0.374l-3.447,0l0,7.214l-0.675,0l0,-17.249l4.121,0l0,-0.001zm0,9.484c0.81,0 1.54,-0.115 2.189,-0.344c0.65,-0.229 1.203,-0.544 1.656,-0.945c0.454,-0.4 0.804,-0.875 1.049,-1.422c0.246,-0.549 0.368,-1.137 0.368,-1.768c0,-1.455 -0.438,-2.563 -1.313,-3.324c-0.875,-0.761 -2.192,-1.141 -3.95,-1.141l-3.447,0l0,8.943l3.448,0l0,0.001z" fill="#FFFFFF"/>
    <path id="svg_39" d="m269.688,693.403l0,17.249l-0.588,0l0,-15.777c0,-0.064 0.002,-0.131 0.006,-0.195c0.004,-0.066 0.006,-0.131 0.006,-0.197l-7.238,12.697c-0.082,0.14 -0.18,0.209 -0.294,0.209l-0.123,0c-0.123,0 -0.225,-0.069 -0.307,-0.209l-7.459,-12.721c0.008,0.072 0.015,0.145 0.019,0.214s0.006,0.138 0.006,0.202l0,15.777l-0.589,0l0,-17.249l0.405,0c0.065,0 0.121,0.011 0.166,0.03c0.045,0.021 0.088,0.064 0.129,0.129l7.483,12.71c0.074,0.155 0.143,0.307 0.208,0.454c0.033,-0.074 0.065,-0.149 0.098,-0.228c0.033,-0.077 0.069,-0.157 0.11,-0.239l7.263,-12.697c0.041,-0.064 0.083,-0.107 0.129,-0.129c0.044,-0.02 0.1,-0.03 0.166,-0.03l0.404,0z" fill="#FFFFFF"/>
    <path id="svg_40" d="m287.329,710.075l-0.024,0.577l-10.182,0l0,-17.249l10.182,0l0,0.577l-9.507,0l0,7.643l8.011,0l0,0.564l-8.011,0l0,7.888l9.531,0z" fill="#FFFFFF"/>
    <path id="svg_41" d="m306.309,693.403l0,17.249l-0.283,0c-0.105,0 -0.195,-0.049 -0.27,-0.147l-11.839,-15.997c0.008,0.073 0.015,0.148 0.019,0.227s0.006,0.149 0.006,0.215l0,15.703l-0.589,0l0,-17.249l0.307,0c0.065,0 0.118,0.011 0.16,0.03c0.041,0.021 0.085,0.064 0.135,0.129l11.79,15.936c-0.008,-0.072 -0.014,-0.146 -0.02,-0.221c-0.004,-0.073 -0.006,-0.143 -0.006,-0.208l0,-15.666l0.59,0l0,-0.001z" fill="#FFFFFF"/>
    <path id="svg_42" d="m324.709,693.992l-6.318,0l0,16.66l-0.674,0l0,-16.66l-6.355,0l0,-0.589l13.348,0l0,0.589l-0.001,0z" fill="#FFFFFF"/>
    <path id="svg_43" d="m351.207,708.088c0.033,0 0.078,0.021 0.135,0.062l0.258,0.27c-0.359,0.36 -0.748,0.689 -1.164,0.987c-0.418,0.299 -0.877,0.555 -1.375,0.768s-1.045,0.378 -1.639,0.496c-0.592,0.119 -1.244,0.178 -1.955,0.178c-1.17,0 -2.248,-0.206 -3.232,-0.619c-0.986,-0.412 -1.834,-1.002 -2.547,-1.767c-0.711,-0.765 -1.268,-1.69 -1.668,-2.778s-0.602,-2.307 -0.602,-3.656c0,-1.316 0.201,-2.517 0.602,-3.601c0.4,-1.083 0.967,-2.012 1.699,-2.784c0.732,-0.773 1.607,-1.372 2.625,-1.798c1.018,-0.425 2.141,-0.638 3.367,-0.638c1.154,0 2.176,0.176 3.068,0.527c0.891,0.352 1.721,0.859 2.49,1.521l-0.186,0.27c-0.031,0.058 -0.098,0.086 -0.195,0.086c-0.049,0 -0.133,-0.045 -0.252,-0.135s-0.273,-0.203 -0.467,-0.338c-0.191,-0.135 -0.424,-0.281 -0.699,-0.441c-0.273,-0.159 -0.594,-0.307 -0.963,-0.441c-0.367,-0.135 -0.785,-0.247 -1.25,-0.338c-0.467,-0.09 -0.982,-0.135 -1.547,-0.135c-1.111,0 -2.135,0.193 -3.066,0.577s-1.734,0.933 -2.404,1.644c-0.672,0.712 -1.191,1.576 -1.564,2.595s-0.559,2.161 -0.559,3.429c0,1.293 0.186,2.447 0.559,3.466s0.889,1.882 1.553,2.589c0.662,0.707 1.443,1.249 2.342,1.625c0.9,0.377 1.877,0.564 2.934,0.564c0.662,0 1.254,-0.045 1.777,-0.135s1.004,-0.225 1.441,-0.404c0.438,-0.181 0.844,-0.401 1.215,-0.663c0.373,-0.262 0.742,-0.56 1.111,-0.896c0.056,-0.058 0.109,-0.087 0.158,-0.087z" fill="#FFFFFF"/>
    <path id="svg_44" d="m372.223,702.027c0,1.35 -0.197,2.566 -0.59,3.65s-0.943,2.008 -1.654,2.771c-0.713,0.766 -1.563,1.352 -2.553,1.762c-0.99,0.408 -2.086,0.613 -3.287,0.613c-1.186,0 -2.273,-0.205 -3.264,-0.613c-0.99,-0.41 -1.84,-0.996 -2.553,-1.762c-0.711,-0.764 -1.262,-1.688 -1.654,-2.771s-0.59,-2.301 -0.59,-3.65c0,-1.341 0.197,-2.556 0.59,-3.644c0.393,-1.087 0.943,-2.014 1.654,-2.778c0.713,-0.765 1.563,-1.355 2.553,-1.773c0.99,-0.416 2.078,-0.625 3.264,-0.625c1.201,0 2.297,0.207 3.287,0.619c0.99,0.414 1.84,1.002 2.553,1.768c0.711,0.764 1.262,1.69 1.654,2.777c0.392,1.088 0.59,2.307 0.59,3.656zm-0.711,0c0,-1.283 -0.178,-2.436 -0.535,-3.453c-0.355,-1.018 -0.857,-1.883 -1.508,-2.595s-1.428,-1.255 -2.332,-1.632c-0.902,-0.376 -1.902,-0.564 -2.998,-0.564c-1.08,0 -2.072,0.188 -2.975,0.564c-0.904,0.377 -1.682,0.92 -2.332,1.632s-1.156,1.577 -1.521,2.595c-0.363,1.018 -0.545,2.17 -0.545,3.453c0,1.284 0.182,2.436 0.545,3.453c0.365,1.019 0.871,1.879 1.521,2.583c0.65,0.703 1.428,1.243 2.332,1.619c0.902,0.376 1.895,0.564 2.975,0.564c1.096,0 2.096,-0.188 2.998,-0.564c0.904,-0.376 1.682,-0.916 2.332,-1.619c0.65,-0.704 1.152,-1.564 1.508,-2.583c0.357,-1.017 0.535,-2.168 0.535,-3.453z" fill="#FFFFFF"/>
    <path id="svg_45" d="m395.064,693.403l0,17.249l-0.59,0l0,-15.777c0,-0.064 0.002,-0.131 0.008,-0.195c0.004,-0.066 0.006,-0.131 0.006,-0.197l-7.238,12.697c-0.082,0.14 -0.18,0.209 -0.295,0.209l-0.123,0c-0.121,0 -0.225,-0.069 -0.307,-0.209l-7.459,-12.721c0.008,0.072 0.016,0.145 0.02,0.214s0.006,0.138 0.006,0.202l0,15.777l-0.59,0l0,-17.249l0.406,0c0.064,0 0.119,0.011 0.166,0.03c0.043,0.021 0.086,0.064 0.127,0.129l7.484,12.71c0.074,0.155 0.143,0.307 0.209,0.454c0.031,-0.074 0.064,-0.149 0.098,-0.228c0.033,-0.077 0.07,-0.157 0.111,-0.239l7.262,-12.697c0.041,-0.064 0.084,-0.107 0.129,-0.129c0.045,-0.02 0.1,-0.03 0.166,-0.03l0.404,0z" fill="#FFFFFF"/>
    <path id="svg_46" d="m419.061,693.403l0,17.249l-0.59,0l0,-15.777c0,-0.064 0.002,-0.131 0.008,-0.195c0.004,-0.066 0.006,-0.131 0.006,-0.197l-7.238,12.697c-0.082,0.14 -0.18,0.209 -0.295,0.209l-0.123,0c-0.121,0 -0.225,-0.069 -0.307,-0.209l-7.459,-12.721c0.008,0.072 0.016,0.145 0.02,0.214s0.006,0.138 0.006,0.202l0,15.777l-0.59,0l0,-17.249l0.406,0c0.064,0 0.119,0.011 0.166,0.03c0.043,0.021 0.086,0.064 0.127,0.129l7.484,12.71c0.074,0.155 0.143,0.307 0.209,0.454c0.031,-0.074 0.064,-0.149 0.098,-0.228c0.033,-0.077 0.07,-0.157 0.111,-0.239l7.262,-12.697c0.041,-0.064 0.084,-0.107 0.129,-0.129c0.045,-0.02 0.1,-0.03 0.166,-0.03l0.404,0z" fill="#FFFFFF"/>
    <path id="svg_47" d="m432.629,710.26c0.891,0 1.686,-0.158 2.385,-0.473s1.293,-0.746 1.779,-1.295c0.486,-0.547 0.859,-1.191 1.117,-1.932c0.256,-0.74 0.385,-1.535 0.385,-2.387l0,-10.771l0.688,0l0,10.771c0,0.934 -0.146,1.807 -0.441,2.619c-0.295,0.814 -0.717,1.523 -1.27,2.129s-1.219,1.082 -2,1.43s-1.662,0.521 -2.643,0.521c-0.982,0 -1.865,-0.174 -2.65,-0.521s-1.453,-0.824 -2,-1.43c-0.549,-0.605 -0.969,-1.314 -1.264,-2.129c-0.295,-0.813 -0.441,-1.686 -0.441,-2.619l0,-10.771l0.674,0l0,10.747c0,0.85 0.129,1.647 0.387,2.392c0.258,0.745 0.631,1.393 1.117,1.944c0.486,0.553 1.082,0.986 1.785,1.301s1.499,0.474 2.392,0.474z" fill="#FFFFFF"/>
    <path id="svg_48" d="m459.15,693.403l0,17.249l-0.281,0c-0.107,0 -0.197,-0.049 -0.27,-0.147l-11.84,-15.997c0.008,0.073 0.016,0.148 0.02,0.227s0.006,0.149 0.006,0.215l0,15.703l-0.59,0l0,-17.249l0.307,0c0.066,0 0.119,0.011 0.16,0.03c0.041,0.021 0.086,0.064 0.135,0.129l11.789,15.936c-0.008,-0.072 -0.014,-0.146 -0.018,-0.221c-0.004,-0.073 -0.006,-0.143 -0.006,-0.208l0,-15.666l0.588,0l0,-0.001z" fill="#FFFFFF"/>
    <path id="svg_49" d="m467.26,710.652l-0.676,0l0,-17.249l0.676,0l0,17.249z" fill="#FFFFFF"/>
    <path id="svg_50" d="m485.662,693.992l-6.318,0l0,16.66l-0.674,0l0,-16.66l-6.355,0l0,-0.589l13.348,0l0,0.589l-0.001,0z" fill="#FFFFFF"/>
    <path id="svg_51" d="m495.439,703.401l0,7.251l-0.688,0l0,-7.251l-6.404,-9.998l0.576,0c0.074,0 0.131,0.015 0.172,0.043s0.082,0.075 0.123,0.142l5.459,8.563c0.082,0.139 0.16,0.273 0.234,0.404c0.072,0.131 0.135,0.262 0.184,0.393c0.057,-0.139 0.121,-0.271 0.189,-0.398c0.07,-0.127 0.145,-0.26 0.227,-0.398l5.459,-8.563c0.066,-0.123 0.16,-0.185 0.283,-0.185l0.588,0l-6.402,9.997z" fill="#FFFFFF"/>
   </g>
   <g id="svg_52">
    <path id="svg_53" d="m534.515,573.639l-1.564,-3.734c13.36,-5.597 22.854,-17.445 25.397,-31.695c4.1,-23.022 -11.295,-45.09 -34.318,-49.191c-17.723,-3.156 -35.575,5.255 -44.41,20.939l-3.527,-1.986c9.678,-17.18 29.226,-26.401 48.648,-22.938c25.22,4.492 42.084,28.666 37.593,53.886c-2.786,15.609 -13.186,28.588 -27.819,34.719z" fill="#B2D235"/>
   </g>
   <g id="svg_54">
    <path id="svg_55" d="m493.424,616.123c-8.244,-6.588 -19.969,-9.879 -35.17,-9.879c-5.781,0 -9.904,-1.23 -12.365,-3.691c-0.859,-0.859 -1.447,-1.793 -1.768,-2.813c-0.322,-1.018 -0.59,-1.952 -0.803,-2.811c-0.217,-1.069 -0.32,-2.141 -0.32,-3.213l0.16,-0.161l0,-1.124c0,-0.747 0.213,-1.709 0.641,-2.889c0.428,-1.178 1.26,-2.302 2.49,-3.373c1.23,-1.07 2.998,-1.98 5.299,-2.73c2.303,-0.748 5.381,-1.123 9.236,-1.123c3.957,0 7.17,0.48 9.635,1.443c2.461,0.965 4.336,2.168 5.621,3.614s2.141,2.997 2.568,4.657s0.643,3.133 0.643,4.418l0,-0.322l24.412,0.803c0,-0.427 -0.055,-1.551 -0.162,-3.374c-0.105,-1.816 -0.48,-4.013 -1.123,-6.583c-0.527,-2.107 -1.359,-4.371 -2.463,-6.768c-3.799,-0.919 -7.479,-2.33 -10.949,-4.223l-15.467,6l2.555,-16.564c-1.723,-2.051 -3.232,-4.248 -4.553,-6.549c-3.35,-0.62 -6.904,-0.965 -10.717,-0.965c-13.922,0 -24.789,3.91 -32.602,11.724c-2.143,2.144 -3.83,4.362 -5.061,6.665s-2.195,4.473 -2.891,6.504c-0.697,2.035 -1.15,3.883 -1.363,5.54c-0.215,1.662 -0.322,2.866 -0.322,3.614c0,0.857 0.025,2.223 0.08,4.097c0.053,1.873 0.348,4.069 0.885,6.583c0.533,2.518 1.445,5.195 2.73,8.029c1.285,2.84 3.104,5.541 5.461,8.111c1.176,1.392 2.674,2.783 4.494,4.176c1.82,1.392 3.961,2.65 6.424,3.774s5.326,2.061 8.594,2.81c3.264,0.75 6.93,1.125 11,1.125c5.352,0 9.85,0.51 13.49,1.523c3.639,1.02 6.207,2.436 7.709,4.257c0.855,1.071 1.365,2.248 1.523,3.533c0.162,1.285 0.242,2.57 0.242,3.855c-0.748,2.248 -1.82,4.043 -3.211,5.38c-1.393,1.338 -3.48,2.568 -6.264,3.692c-2.787,1.124 -6.586,1.687 -11.404,1.687c-2.996,0 -5.674,-0.401 -8.027,-1.205c-2.357,-0.801 -4.363,-1.791 -6.023,-2.971c-1.66,-1.177 -2.945,-2.41 -3.854,-3.695c-0.91,-1.285 -1.365,-2.408 -1.365,-3.371l-24.412,0c0,4.818 1.15,9.396 3.455,13.731c2.301,4.335 5.459,8.11 9.475,11.323c4.016,3.21 8.645,5.78 13.891,7.706c5.246,1.93 10.865,2.893 16.861,2.893c8.246,0 15.26,-1.181 21.041,-3.533c5.781,-2.354 10.463,-5.3 14.051,-8.833c3.586,-3.533 6.209,-7.334 7.871,-11.402c1.656,-4.069 2.486,-7.814 2.486,-11.242c0.001,-11.988 -4.12,-21.278 -12.364,-27.86z" fill="#B2D235"/>
   </g>
  </g>
  <g id="svg_56">
   <path id="svg_57" d="m134.274,232.435c4.066,2.357 7.228,5.195 9.475,8.513c2.248,3.32 3.879,6.504 4.899,9.556c1.015,3.051 1.629,5.7 1.845,7.948c0.213,2.248 0.322,3.481 0.322,3.694c0,5.676 -0.83,10.414 -2.49,14.213c-1.662,3.801 -3.854,6.933 -6.585,9.395c-2.729,2.466 -5.861,4.365 -9.395,5.703c-3.533,1.338 -7.173,2.303 -10.919,2.889c-3.749,0.59 -7.496,0.91 -11.242,0.965c-3.749,0.052 -7.175,0.081 -10.279,0.081l-40.791,0l0,-117.72l40.792,0c3.96,0 8.271,0.668 12.928,2.006c4.657,1.342 8.965,3.533 12.928,6.587c3.96,3.05 7.28,7.014 9.957,11.885c2.675,4.871 4.017,10.787 4.017,17.744c0,2.144 -0.138,3.934 -0.403,5.38c-0.268,1.446 -0.643,2.786 -1.124,4.017c-0.481,1.231 -1.043,2.383 -1.686,3.45c-0.644,1.071 -1.393,2.304 -2.249,3.694zm-49.947,-7.548l15.579,0c1.285,0 2.784,0.028 4.496,0.081c1.712,0.057 3.293,-0.104 4.738,-0.481c1.446,-0.375 2.675,-1.205 3.694,-2.49c1.017,-1.285 1.527,-3.317 1.527,-6.104c0,-2.995 -0.59,-5.352 -1.767,-7.066c-1.181,-1.712 -2.57,-2.995 -4.176,-3.854c-1.607,-0.856 -3.213,-1.392 -4.818,-1.605c-1.605,-0.213 -2.838,-0.322 -3.694,-0.322l-15.579,0l0,21.841zm17.668,45.288c7.277,0 12.551,-0.667 15.818,-2.006c3.263,-1.338 4.896,-3.937 4.896,-7.79c0,-3.747 -1.634,-6.263 -4.896,-7.548c-3.268,-1.285 -8.541,-1.928 -15.818,-1.928l-17.668,0l0,19.271l17.668,0l0,0.001z" fill="#B2D235"/>
   <path id="svg_58" d="m204.132,295.39l-6.104,-17.345l-47.538,0l-6.101,17.345l-26.66,0l42.077,-117.877l28.907,0l42.077,117.877l-26.658,0zm-44.967,-41.596l30.192,0l-15.097,-42.236l-15.095,42.236z" fill="#B2D235"/>
   <path id="svg_59" d="m242.994,177.672l0,117.718l-24.412,0l0,-117.718l24.412,0z" fill="#B2D235"/>
   <path id="svg_60" d="m340.809,253.472c3.104,2.788 5.779,5.918 8.027,9.397c2.25,3.481 4.096,7.066 5.543,10.76c1.443,3.694 2.488,7.415 3.131,11.162c0.643,3.749 0.963,7.282 0.963,10.599l-12.045,0l-12.205,0c0,-0.75 -0.08,-2.008 -0.242,-3.775c-0.158,-1.767 -0.506,-3.718 -1.043,-5.862c-0.535,-2.139 -1.34,-4.334 -2.408,-6.584c-1.072,-2.248 -2.545,-4.337 -4.416,-6.263c-1.875,-1.928 -4.203,-3.479 -6.986,-4.657c-2.785,-1.176 -6.156,-1.769 -10.117,-1.769l-29.068,0l0,28.91l-24.089,0l0,-118.038l53.158,0c0.428,0 1.605,0.078 3.533,0.24c1.928,0.161 4.256,0.643 6.986,1.446c2.729,0.801 5.699,2.008 8.912,3.611c3.211,1.607 6.314,3.912 9.314,6.907c8.885,8.889 13.33,21.092 13.33,36.616c0,6.101 -0.938,11.403 -2.811,15.899s-4.364,8.299 -7.467,11.401zm-31.799,-11.24c1.285,0 2.943,-0.188 4.977,-0.562s4.018,-1.124 5.943,-2.248c1.928,-1.124 3.559,-2.731 4.898,-4.818c1.338,-2.089 2.008,-4.899 2.008,-8.432c0,-5.565 -0.723,-9.983 -2.168,-13.25c-1.445,-3.263 -3.16,-5.724 -5.139,-7.386c-1.982,-1.658 -3.992,-2.729 -6.023,-3.213c-2.035,-0.481 -3.588,-0.723 -4.656,-0.723l-28.908,0l0,40.633l29.068,0l0,-0.001z" fill="#B2D235"/>
   <path id="svg_61" d="m361.572,202.083l0,23.93l52.998,0l0,24.571l-52.998,0l0,20.236l55.086,0l0,24.57l-79.496,0l0,-117.716l79.496,0l0,24.409l-55.086,0z" fill="#B2D235"/>
   <g id="svg_62">
    <path id="svg_63" d="m485.037,139.384l2.334,0c0.25,0 0.459,0.063 0.623,0.188c0.164,0.126 0.275,0.286 0.334,0.479l4.291,14.44c0.078,0.261 0.146,0.542 0.211,0.841c0.063,0.3 0.123,0.614 0.18,0.942c0.068,-0.328 0.137,-0.645 0.203,-0.949c0.068,-0.305 0.146,-0.583 0.232,-0.834l4.887,-14.44c0.057,-0.164 0.172,-0.316 0.34,-0.457c0.17,-0.14 0.375,-0.21 0.617,-0.21l0.811,0c0.252,0 0.457,0.063 0.617,0.188c0.158,0.126 0.273,0.286 0.34,0.479l4.857,14.44c0.174,0.503 0.328,1.078 0.465,1.726c0.057,-0.319 0.109,-0.624 0.158,-0.914s0.111,-0.561 0.189,-0.812l4.305,-14.44c0.049,-0.174 0.158,-0.328 0.326,-0.464c0.17,-0.135 0.375,-0.203 0.617,-0.203l2.189,0l-6.48,20.776l-2.523,0l-5.264,-15.847c-0.105,-0.299 -0.203,-0.647 -0.289,-1.044c-0.049,0.193 -0.094,0.379 -0.139,0.558c-0.043,0.179 -0.088,0.341 -0.137,0.486l-5.293,15.847l-2.521,0l-6.48,-20.776z"/>
    <path id="svg_64" d="m528.256,139.384l0,2.291l-9.975,0l0,6.901l8.076,0l0,2.204l-8.076,0l0,7.09l9.975,0l0,2.291l-12.803,0l0,-20.776l12.803,0l0,-0.001z"/>
    <path id="svg_65" d="m530.852,160.16l0,-20.776l6.625,0c1.275,0 2.375,0.126 3.299,0.377c0.924,0.251 1.682,0.609 2.275,1.073c0.596,0.464 1.035,1.032 1.32,1.704s0.428,1.428 0.428,2.269c0,0.512 -0.08,1.005 -0.24,1.479c-0.158,0.474 -0.4,0.914 -0.725,1.319c-0.324,0.406 -0.729,0.769 -1.217,1.087s-1.061,0.58 -1.719,0.783c1.518,0.299 2.662,0.846 3.436,1.638s1.16,1.836 1.16,3.131c0,0.88 -0.162,1.682 -0.484,2.407c-0.324,0.725 -0.799,1.349 -1.422,1.871s-1.387,0.925 -2.291,1.21s-1.936,0.428 -3.096,0.428l-7.349,0zm2.812,-11.468l3.711,0c0.793,0 1.479,-0.087 2.059,-0.261c0.58,-0.174 1.061,-0.416 1.443,-0.725c0.381,-0.309 0.664,-0.684 0.848,-1.124s0.275,-0.92 0.275,-1.442c0,-1.218 -0.367,-2.111 -1.102,-2.682c-0.734,-0.57 -1.875,-0.855 -3.422,-0.855l-3.813,0l0,7.089l0.001,0zm0,2.001l0,7.234l4.494,0c0.803,0 1.49,-0.092 2.066,-0.275c0.574,-0.184 1.049,-0.442 1.42,-0.775c0.373,-0.333 0.646,-0.73 0.82,-1.189s0.26,-0.964 0.26,-1.515c0,-1.073 -0.379,-1.921 -1.137,-2.544c-0.76,-0.624 -1.906,-0.935 -3.443,-0.935l-4.48,0l0,-0.001z"/>
   </g>
   <g id="svg_66">
    <path id="svg_67" d="m83.146,310.922l-5.459,17.249l-0.602,0l-5.471,-15.924c-0.057,-0.163 -0.103,-0.327 -0.135,-0.491c-0.033,0.164 -0.078,0.328 -0.135,0.491l-5.496,15.924l-0.589,0l-5.459,-17.249l0.552,0c0.139,0 0.229,0.069 0.27,0.208l4.76,15.323c0.082,0.278 0.151,0.572 0.208,0.883c0.032,-0.164 0.067,-0.319 0.104,-0.466c0.037,-0.147 0.076,-0.286 0.117,-0.417l5.312,-15.323c0.041,-0.139 0.139,-0.208 0.294,-0.208l0.16,0c0.139,0 0.229,0.069 0.27,0.208l5.312,15.323c0.082,0.253 0.155,0.544 0.221,0.871c0.033,-0.163 0.065,-0.317 0.098,-0.46s0.07,-0.28 0.111,-0.411l4.76,-15.323c0.041,-0.139 0.139,-0.208 0.294,-0.208l0.503,0z"/>
    <path id="svg_68" d="m98.737,327.594l-0.024,0.577l-10.182,0l0,-17.249l10.182,0l0,0.577l-9.507,0l0,7.643l8.011,0l0,0.564l-8.011,0l0,7.888l9.531,0z"/>
    <path id="svg_69" d="m109.435,310.922c1.881,0 3.28,0.376 4.196,1.128c0.916,0.753 1.374,1.82 1.374,3.202c0,0.482 -0.09,0.947 -0.27,1.393c-0.18,0.446 -0.432,0.853 -0.754,1.22c-0.323,0.368 -0.716,0.683 -1.178,0.945c-0.462,0.262 -0.976,0.446 -1.54,0.552c0.703,0.073 1.333,0.223 1.889,0.448s1.028,0.515 1.417,0.871c0.388,0.356 0.685,0.777 0.889,1.264c0.205,0.487 0.307,1.029 0.307,1.625c0,0.736 -0.126,1.389 -0.38,1.957c-0.254,0.568 -0.624,1.049 -1.11,1.441c-0.487,0.393 -1.082,0.691 -1.785,0.896s-1.505,0.307 -2.404,0.307l-5.324,0l0,-17.249l4.673,0zm-3.999,0.54l0,7.717l4.085,0c0.867,0 1.605,-0.117 2.214,-0.35c0.609,-0.233 1.108,-0.536 1.497,-0.908c0.389,-0.372 0.67,-0.789 0.847,-1.251c0.176,-0.462 0.264,-0.918 0.264,-1.368c0,-1.235 -0.403,-2.184 -1.208,-2.846c-0.806,-0.662 -2.039,-0.994 -3.699,-0.994l-4,0zm4.649,16.157c1.611,0 2.848,-0.345 3.711,-1.037c0.863,-0.691 1.294,-1.699 1.294,-3.024c0,-0.597 -0.117,-1.133 -0.35,-1.607c-0.233,-0.474 -0.564,-0.879 -0.994,-1.214c-0.429,-0.335 -0.953,-0.593 -1.57,-0.773c-0.618,-0.18 -1.311,-0.27 -2.08,-0.27l-4.662,0l0,7.925l4.651,0z"/>
    <path id="svg_70" d="m145.159,319.546c0,1.35 -0.196,2.558 -0.589,3.625s-0.945,1.971 -1.656,2.711c-0.711,0.74 -1.562,1.307 -2.552,1.699s-2.082,0.589 -3.275,0.589l-6.22,0l0,-17.249l6.22,0c1.194,0 2.286,0.196 3.275,0.589s1.84,0.959 2.552,1.699s1.264,1.644 1.656,2.711s0.589,2.277 0.589,3.626zm-0.711,0c0,-1.284 -0.178,-2.427 -0.534,-3.429c-0.356,-1.001 -0.859,-1.846 -1.509,-2.533c-0.65,-0.687 -1.427,-1.21 -2.331,-1.57c-0.904,-0.36 -1.9,-0.54 -2.987,-0.54l-5.545,0l0,16.144l5.545,0c1.087,0 2.083,-0.18 2.987,-0.54c0.903,-0.36 1.681,-0.883 2.331,-1.57c0.65,-0.687 1.153,-1.531 1.509,-2.533c0.356,-1.001 0.534,-2.144 0.534,-3.429z"/>
    <path id="svg_71" d="m161.671,327.594l-0.024,0.577l-10.182,0l0,-17.249l10.182,0l0,0.577l-9.507,0l0,7.643l8.011,0l0,0.564l-8.011,0l0,7.888l9.531,0z"/>
    <path id="svg_72" d="m180.331,310.922l-7.165,17.249l-0.601,0l-7.165,-17.249l0.528,0c0.139,0 0.229,0.069 0.27,0.208l6.404,15.445c0.049,0.131 0.096,0.264 0.141,0.398c0.044,0.135 0.087,0.272 0.128,0.411c0.074,-0.278 0.16,-0.548 0.258,-0.81l6.392,-15.445c0.041,-0.139 0.139,-0.208 0.294,-0.208l0.516,0l0,0.001z"/>
    <path id="svg_73" d="m195.677,327.594l-0.024,0.577l-10.182,0l0,-17.249l10.182,0l0,0.577l-9.507,0l0,7.643l8.011,0l0,0.564l-8.011,0l0,7.888l9.531,0z"/>
    <path id="svg_74" d="m210.926,327.582l0,0.589l-9.225,0l0,-17.249l0.675,0l0,16.66l8.55,0z"/>
    <path id="svg_75" d="m230.984,319.546c0,1.35 -0.196,2.566 -0.589,3.65c-0.393,1.084 -0.945,2.008 -1.656,2.772c-0.711,0.765 -1.562,1.352 -2.552,1.761c-0.99,0.409 -2.085,0.613 -3.288,0.613c-1.186,0 -2.274,-0.205 -3.263,-0.613c-0.99,-0.409 -1.84,-0.996 -2.552,-1.761c-0.711,-0.765 -1.264,-1.688 -1.656,-2.772c-0.393,-1.083 -0.589,-2.3 -0.589,-3.65c0,-1.341 0.196,-2.556 0.589,-3.644c0.393,-1.087 0.945,-2.014 1.656,-2.778s1.562,-1.355 2.552,-1.773c0.989,-0.417 2.077,-0.625 3.263,-0.625c1.202,0 2.298,0.207 3.288,0.62s1.84,1.002 2.552,1.767s1.264,1.691 1.656,2.778c0.393,1.088 0.589,2.306 0.589,3.655zm-0.712,0c0,-1.284 -0.178,-2.435 -0.534,-3.453c-0.356,-1.018 -0.859,-1.883 -1.509,-2.595c-0.65,-0.711 -1.427,-1.255 -2.331,-1.631c-0.904,-0.376 -1.904,-0.564 -3,-0.564c-1.08,0 -2.071,0.188 -2.975,0.564c-0.904,0.376 -1.681,0.92 -2.331,1.631c-0.65,0.711 -1.158,1.577 -1.521,2.595s-0.546,2.169 -0.546,3.453c0,1.284 0.182,2.436 0.546,3.454s0.871,1.879 1.521,2.583c0.65,0.703 1.427,1.243 2.331,1.619c0.904,0.376 1.896,0.564 2.975,0.564c1.096,0 2.096,-0.188 3,-0.564c0.903,-0.376 1.681,-0.916 2.331,-1.619c0.65,-0.704 1.153,-1.564 1.509,-2.583c0.356,-1.018 0.534,-2.169 0.534,-3.454z"/>
    <path id="svg_76" d="m241.387,310.922c1.946,0 3.424,0.417 4.435,1.251c1.01,0.834 1.515,2.085 1.515,3.754c0,0.728 -0.141,1.4 -0.423,2.018s-0.685,1.149 -1.208,1.595s-1.151,0.793 -1.883,1.042c-0.732,0.25 -1.544,0.375 -2.435,0.375l-3.447,0l0,7.213l-0.675,0l0,-17.249l4.121,0l0,0.001zm0,9.483c0.81,0 1.54,-0.114 2.189,-0.343c0.65,-0.229 1.203,-0.544 1.656,-0.945c0.454,-0.4 0.804,-0.875 1.049,-1.423c0.246,-0.548 0.368,-1.137 0.368,-1.767c0,-1.456 -0.438,-2.564 -1.313,-3.325c-0.875,-0.761 -2.192,-1.141 -3.95,-1.141l-3.447,0l0,8.943l3.448,0l0,0.001z"/>
    <path id="svg_77" d="m269.688,310.922l0,17.249l-0.588,0l0,-15.776c0,-0.065 0.002,-0.131 0.006,-0.196c0.004,-0.065 0.006,-0.131 0.006,-0.196l-7.238,12.697c-0.082,0.139 -0.18,0.208 -0.294,0.208l-0.123,0c-0.123,0 -0.225,-0.069 -0.307,-0.208l-7.459,-12.722c0.008,0.073 0.015,0.145 0.019,0.214c0.004,0.07 0.006,0.137 0.006,0.203l0,15.776l-0.589,0l0,-17.249l0.405,0c0.065,0 0.121,0.01 0.166,0.031s0.088,0.063 0.129,0.129l7.483,12.709c0.074,0.155 0.143,0.307 0.208,0.454c0.033,-0.074 0.065,-0.149 0.098,-0.227c0.033,-0.078 0.069,-0.157 0.11,-0.239l7.263,-12.697c0.041,-0.065 0.083,-0.108 0.129,-0.129c0.044,-0.021 0.1,-0.031 0.166,-0.031l0.404,0z"/>
    <path id="svg_78" d="m287.329,327.594l-0.024,0.577l-10.182,0l0,-17.249l10.182,0l0,0.577l-9.507,0l0,7.643l8.011,0l0,0.564l-8.011,0l0,7.888l9.531,0z"/>
    <path id="svg_79" d="m306.309,310.922l0,17.249l-0.283,0c-0.105,0 -0.195,-0.049 -0.27,-0.147l-11.839,-15.998c0.008,0.074 0.015,0.149 0.019,0.227s0.006,0.149 0.006,0.215l0,15.703l-0.589,0l0,-17.249l0.307,0c0.065,0 0.118,0.01 0.16,0.031c0.041,0.021 0.085,0.063 0.135,0.129l11.79,15.936c-0.008,-0.073 -0.014,-0.147 -0.02,-0.221c-0.004,-0.074 -0.006,-0.143 -0.006,-0.208l0,-15.666l0.59,0l0,-0.001z"/>
    <path id="svg_80" d="m324.709,311.511l-6.318,0l0,16.66l-0.674,0l0,-16.66l-6.355,0l0,-0.589l13.348,0l0,0.589l-0.001,0z"/>
    <path id="svg_81" d="m351.207,325.607c0.033,0 0.078,0.021 0.135,0.062l0.258,0.27c-0.359,0.36 -0.748,0.689 -1.164,0.988c-0.418,0.298 -0.877,0.554 -1.375,0.767c-0.498,0.213 -1.045,0.378 -1.639,0.497c-0.592,0.118 -1.244,0.178 -1.955,0.178c-1.17,0 -2.248,-0.207 -3.232,-0.62c-0.986,-0.413 -1.834,-1.001 -2.547,-1.767c-0.711,-0.765 -1.268,-1.691 -1.668,-2.778c-0.4,-1.088 -0.602,-2.307 -0.602,-3.656c0,-1.316 0.201,-2.517 0.602,-3.601c0.4,-1.083 0.967,-2.012 1.699,-2.785s1.607,-1.372 2.625,-1.797c1.018,-0.425 2.141,-0.638 3.367,-0.638c1.154,0 2.176,0.176 3.068,0.527c0.891,0.352 1.721,0.859 2.49,1.521l-0.186,0.27c-0.031,0.058 -0.098,0.086 -0.195,0.086c-0.049,0 -0.133,-0.045 -0.252,-0.135s-0.273,-0.203 -0.467,-0.337c-0.191,-0.135 -0.424,-0.282 -0.699,-0.441c-0.273,-0.16 -0.594,-0.307 -0.963,-0.442c-0.367,-0.135 -0.785,-0.247 -1.25,-0.337c-0.467,-0.09 -0.982,-0.135 -1.547,-0.135c-1.111,0 -2.135,0.192 -3.066,0.577s-1.734,0.932 -2.404,1.644c-0.672,0.712 -1.191,1.577 -1.564,2.595s-0.559,2.161 -0.559,3.429c0,1.292 0.186,2.448 0.559,3.466s0.889,1.881 1.553,2.588c0.662,0.708 1.443,1.25 2.342,1.625c0.9,0.376 1.877,0.564 2.934,0.564c0.662,0 1.254,-0.045 1.777,-0.135s1.004,-0.225 1.441,-0.405c0.438,-0.18 0.844,-0.401 1.215,-0.663c0.373,-0.262 0.742,-0.56 1.111,-0.896c0.056,-0.057 0.109,-0.086 0.158,-0.086z"/>
    <path id="svg_82" d="m372.223,319.546c0,1.35 -0.197,2.566 -0.59,3.65c-0.393,1.084 -0.943,2.008 -1.654,2.772c-0.713,0.765 -1.563,1.352 -2.553,1.761c-0.99,0.409 -2.086,0.613 -3.287,0.613c-1.186,0 -2.273,-0.205 -3.264,-0.613c-0.99,-0.409 -1.84,-0.996 -2.553,-1.761c-0.711,-0.765 -1.262,-1.688 -1.654,-2.772c-0.393,-1.083 -0.59,-2.3 -0.59,-3.65c0,-1.341 0.197,-2.556 0.59,-3.644c0.393,-1.087 0.943,-2.014 1.654,-2.778c0.713,-0.765 1.563,-1.355 2.553,-1.773c0.99,-0.417 2.078,-0.625 3.264,-0.625c1.201,0 2.297,0.207 3.287,0.62s1.84,1.002 2.553,1.767c0.711,0.765 1.262,1.691 1.654,2.778c0.392,1.088 0.59,2.306 0.59,3.655zm-0.711,0c0,-1.284 -0.178,-2.435 -0.535,-3.453c-0.355,-1.018 -0.857,-1.883 -1.508,-2.595s-1.428,-1.255 -2.332,-1.631c-0.902,-0.376 -1.902,-0.564 -2.998,-0.564c-1.08,0 -2.072,0.188 -2.975,0.564c-0.904,0.376 -1.682,0.92 -2.332,1.631s-1.156,1.577 -1.521,2.595c-0.363,1.018 -0.545,2.169 -0.545,3.453c0,1.284 0.182,2.436 0.545,3.454c0.365,1.018 0.871,1.879 1.521,2.583c0.65,0.703 1.428,1.243 2.332,1.619c0.902,0.376 1.895,0.564 2.975,0.564c1.096,0 2.096,-0.188 2.998,-0.564c0.904,-0.376 1.682,-0.916 2.332,-1.619c0.65,-0.704 1.152,-1.564 1.508,-2.583c0.357,-1.018 0.535,-2.169 0.535,-3.454z"/>
    <path id="svg_83" d="m395.064,310.922l0,17.249l-0.59,0l0,-15.776c0,-0.065 0.002,-0.131 0.008,-0.196c0.004,-0.065 0.006,-0.131 0.006,-0.196l-7.238,12.697c-0.082,0.139 -0.18,0.208 -0.295,0.208l-0.123,0c-0.121,0 -0.225,-0.069 -0.307,-0.208l-7.459,-12.722c0.008,0.073 0.016,0.145 0.02,0.214c0.004,0.07 0.006,0.137 0.006,0.203l0,15.776l-0.59,0l0,-17.249l0.406,0c0.064,0 0.119,0.01 0.166,0.031c0.043,0.021 0.086,0.063 0.127,0.129l7.484,12.709c0.074,0.155 0.143,0.307 0.209,0.454c0.031,-0.074 0.064,-0.149 0.098,-0.227c0.033,-0.078 0.07,-0.157 0.111,-0.239l7.262,-12.697c0.041,-0.065 0.084,-0.108 0.129,-0.129s0.1,-0.031 0.166,-0.031l0.404,0z"/>
    <path id="svg_84" d="m419.061,310.922l0,17.249l-0.59,0l0,-15.776c0,-0.065 0.002,-0.131 0.008,-0.196c0.004,-0.065 0.006,-0.131 0.006,-0.196l-7.238,12.697c-0.082,0.139 -0.18,0.208 -0.295,0.208l-0.123,0c-0.121,0 -0.225,-0.069 -0.307,-0.208l-7.459,-12.722c0.008,0.073 0.016,0.145 0.02,0.214c0.004,0.07 0.006,0.137 0.006,0.203l0,15.776l-0.59,0l0,-17.249l0.406,0c0.064,0 0.119,0.01 0.166,0.031c0.043,0.021 0.086,0.063 0.127,0.129l7.484,12.709c0.074,0.155 0.143,0.307 0.209,0.454c0.031,-0.074 0.064,-0.149 0.098,-0.227c0.033,-0.078 0.07,-0.157 0.111,-0.239l7.262,-12.697c0.041,-0.065 0.084,-0.108 0.129,-0.129s0.1,-0.031 0.166,-0.031l0.404,0z"/>
    <path id="svg_85" d="m432.629,327.778c0.891,0 1.686,-0.157 2.385,-0.472s1.293,-0.747 1.779,-1.294s0.859,-1.192 1.117,-1.932c0.256,-0.74 0.385,-1.536 0.385,-2.386l0,-10.771l0.688,0l0,10.771c0,0.933 -0.146,1.806 -0.441,2.619c-0.295,0.814 -0.717,1.523 -1.27,2.128c-0.553,0.605 -1.219,1.082 -2,1.429c-0.781,0.348 -1.662,0.521 -2.643,0.521c-0.982,0 -1.865,-0.174 -2.65,-0.521c-0.785,-0.347 -1.453,-0.824 -2,-1.429c-0.549,-0.605 -0.969,-1.314 -1.264,-2.128c-0.295,-0.813 -0.441,-1.687 -0.441,-2.619l0,-10.771l0.674,0l0,10.747c0,0.851 0.129,1.648 0.387,2.392c0.258,0.745 0.631,1.393 1.117,1.945c0.486,0.552 1.082,0.985 1.785,1.3s1.499,0.471 2.392,0.471z"/>
    <path id="svg_86" d="m459.15,310.922l0,17.249l-0.281,0c-0.107,0 -0.197,-0.049 -0.27,-0.147l-11.84,-15.998c0.008,0.074 0.016,0.149 0.02,0.227s0.006,0.149 0.006,0.215l0,15.703l-0.59,0l0,-17.249l0.307,0c0.066,0 0.119,0.01 0.16,0.031s0.086,0.063 0.135,0.129l11.789,15.936c-0.008,-0.073 -0.014,-0.147 -0.018,-0.221s-0.006,-0.143 -0.006,-0.208l0,-15.666l0.588,0l0,-0.001z"/>
    <path id="svg_87" d="m467.26,328.171l-0.676,0l0,-17.249l0.676,0l0,17.249z"/>
    <path id="svg_88" d="m485.662,311.511l-6.318,0l0,16.66l-0.674,0l0,-16.66l-6.355,0l0,-0.589l13.348,0l0,0.589l-0.001,0z"/>
    <path id="svg_89" d="m495.439,320.92l0,7.25l-0.688,0l0,-7.25l-6.404,-9.998l0.576,0c0.074,0 0.131,0.014 0.172,0.043s0.082,0.076 0.123,0.141l5.459,8.563c0.082,0.139 0.16,0.274 0.234,0.405c0.072,0.131 0.135,0.262 0.184,0.393c0.057,-0.139 0.121,-0.272 0.189,-0.399c0.07,-0.126 0.145,-0.259 0.227,-0.398l5.459,-8.563c0.066,-0.123 0.16,-0.184 0.283,-0.184l0.588,0l-6.402,9.997z"/>
   </g>
   <g id="svg_90">
    <path id="svg_91" d="m534.515,191.157l-1.564,-3.733c13.36,-5.598 22.855,-17.446 25.397,-31.696c4.1,-23.022 -11.295,-45.089 -34.318,-49.191c-17.727,-3.155 -35.575,5.257 -44.41,20.939l-3.527,-1.986c9.678,-17.181 29.229,-26.398 48.648,-22.938c25.22,4.493 42.084,28.667 37.593,53.887c-2.786,15.608 -13.186,28.587 -27.819,34.718z" fill="#B2D235"/>
   </g>
   <g id="svg_92">
    <path id="svg_93" d="m493.424,233.642c-8.244,-6.587 -19.969,-9.878 -35.17,-9.878c-5.781,0 -9.904,-1.231 -12.365,-3.692c-0.859,-0.858 -1.447,-1.793 -1.768,-2.813c-0.322,-1.017 -0.59,-1.952 -0.803,-2.81c-0.217,-1.07 -0.32,-2.142 -0.32,-3.213l0.16,-0.162l0,-1.124c0,-0.748 0.213,-1.71 0.641,-2.889c0.428,-1.178 1.26,-2.302 2.49,-3.374c1.23,-1.069 2.998,-1.98 5.299,-2.729c2.303,-0.749 5.381,-1.124 9.236,-1.124c3.957,0 7.17,0.481 9.635,1.444c2.461,0.965 4.336,2.167 5.621,3.614s2.141,2.997 2.568,4.657c0.428,1.66 0.643,3.132 0.643,4.417l0,-0.322l24.412,0.804c0,-0.427 -0.055,-1.551 -0.162,-3.375c-0.105,-1.816 -0.48,-4.012 -1.123,-6.583c-0.527,-2.108 -1.359,-4.372 -2.463,-6.768c-3.799,-0.919 -7.479,-2.331 -10.949,-4.224l-15.467,6.001l2.555,-16.565c-1.723,-2.05 -3.232,-4.248 -4.553,-6.548c-3.35,-0.621 -6.904,-0.965 -10.717,-0.965c-13.922,0 -24.789,3.91 -32.602,11.723c-2.143,2.144 -3.83,4.363 -5.061,6.666c-1.23,2.302 -2.195,4.472 -2.891,6.504c-0.697,2.035 -1.15,3.882 -1.363,5.54c-0.215,1.662 -0.322,2.867 -0.322,3.614c0,0.858 0.025,2.224 0.08,4.097c0.053,1.873 0.348,4.069 0.885,6.583c0.533,2.518 1.445,5.195 2.73,8.029c1.285,2.84 3.104,5.541 5.461,8.111c1.176,1.392 2.674,2.784 4.494,4.176c1.82,1.392 3.961,2.651 6.424,3.775s5.326,2.061 8.594,2.81c3.264,0.749 6.93,1.124 11,1.124c5.352,0 9.85,0.51 13.49,1.524c3.639,1.02 6.207,2.436 7.709,4.256c0.855,1.072 1.365,2.248 1.523,3.533c0.162,1.285 0.242,2.57 0.242,3.855c-0.748,2.248 -1.82,4.043 -3.211,5.38c-1.393,1.337 -3.48,2.568 -6.264,3.692c-2.787,1.124 -6.586,1.686 -11.404,1.686c-2.996,0 -5.674,-0.401 -8.027,-1.205c-2.357,-0.801 -4.363,-1.791 -6.023,-2.971c-1.66,-1.176 -2.945,-2.409 -3.854,-3.694c-0.91,-1.285 -1.365,-2.409 -1.365,-3.372l-24.412,0c0,4.818 1.15,9.397 3.455,13.731c2.301,4.335 5.459,8.11 9.475,11.323c4.016,3.21 8.645,5.781 13.891,7.707c5.246,1.93 10.865,2.893 16.861,2.893c8.246,0 15.26,-1.181 21.041,-3.533c5.781,-2.354 10.463,-5.3 14.051,-8.833c3.586,-3.533 6.209,-7.334 7.871,-11.403c1.656,-4.069 2.486,-7.813 2.486,-11.242c0.001,-11.986 -4.12,-21.276 -12.364,-27.858z" fill="#B2D235"/>
   </g>
  </g>
 </g>
</svg>